<?xml version="1.0" encoding="UTF-8" standalone="no"?>
<!DOCTYPE svg PUBLIC "-//W3C//DTD SVG 1.1//EN"
 "http://www.w3.org/Graphics/SVG/1.1/DTD/svg11.dtd">
<!-- Generated by graphviz version 3.0.0 (20220226.1711)
 -->
<!-- Title: classes Pages: 1 -->
<svg width="1554pt" height="484pt"
 viewBox="0.00 0.00 1553.50 484.00" xmlns="http://www.w3.org/2000/svg" xmlns:xlink="http://www.w3.org/1999/xlink">
<g id="graph0" class="graph" transform="scale(1 1) rotate(0) translate(4 480)">
<title>classes</title>
<polygon fill="white" stroke="transparent" points="-4,4 -4,-480 1549.5,-480 1549.5,4 -4,4"/>
<!-- aesa.coup.Angle -->
<g id="node1" class="node">
<title>aesa.coup.Angle</title>
<polygon fill="none" stroke="black" points="0,-120.5 0,-189.5 54,-189.5 54,-120.5 0,-120.5"/>
<text text-anchor="start" x="10.5" y="-174.3" font-family="Times New Roman,serif" font-size="14.00">Angle</text>
<polyline fill="none" stroke="black" points="0,-166.5 54,-166.5 "/>
<text text-anchor="start" x="12" y="-151.3" font-family="Times New Roman,serif" font-size="14.00">name</text>
<polyline fill="none" stroke="black" points="0,-143.5 54,-143.5 "/>
<text text-anchor="start" x="25" y="-128.3" font-family="Times New Roman,serif" font-size="14.00"> </text>
</g>
<!-- aesa.attaque.Attaque -->
<g id="node2" class="node">
<title>aesa.attaque.Attaque</title>
<polygon fill="none" stroke="black" points="179,-361.5 179,-475.5 391,-475.5 391,-361.5 179,-361.5"/>
<text text-anchor="start" x="263" y="-460.3" font-family="Times New Roman,serif" font-size="14.00">Attaque</text>
<polyline fill="none" stroke="black" points="179,-452.5 391,-452.5 "/>
<text text-anchor="start" x="187" y="-437.3" font-family="Times New Roman,serif" font-size="14.00">combattant : Optional[Combattant]</text>
<text text-anchor="start" x="187" y="-422.3" font-family="Times New Roman,serif" font-size="14.00">nom : str</text>
<text text-anchor="start" x="187" y="-407.3" font-family="Times New Roman,serif" font-size="14.00">pa : int</text>
<text text-anchor="start" x="187" y="-392.3" font-family="Times New Roman,serif" font-size="14.00">zone</text>
<polyline fill="none" stroke="black" points="179,-384.5 391,-384.5 "/>
<text text-anchor="start" x="283" y="-369.3" font-family="Times New Roman,serif" font-size="14.00"> </text>
</g>
<!-- aesa.attaque.AttaqueBras -->
<g id="node3" class="node">
<title>aesa.attaque.AttaqueBras</title>
<polygon fill="none" stroke="black" points="72,-120.5 72,-189.5 162,-189.5 162,-120.5 72,-120.5"/>
<text text-anchor="start" x="82" y="-174.3" font-family="Times New Roman,serif" font-size="14.00">AttaqueBras</text>
<polyline fill="none" stroke="black" points="72,-166.5 162,-166.5 "/>
<text text-anchor="start" x="80" y="-151.3" font-family="Times New Roman,serif" font-size="14.00">zone : BRAS</text>
<polyline fill="none" stroke="black" points="72,-143.5 162,-143.5 "/>
<text text-anchor="start" x="115" y="-128.3" font-family="Times New Roman,serif" font-size="14.00"> </text>
</g>
<!-- aesa.attaque.AttaqueBras&#45;&gt;aesa.attaque.Attaque -->
<g id="edge1" class="edge">
<title>aesa.attaque.AttaqueBras&#45;&gt;aesa.attaque.Attaque</title>
<path fill="none" stroke="black" d="M123.89,-189.61C131.67,-222.28 146.54,-272.34 171,-310 181.13,-325.59 193.97,-340.52 207.36,-354.03"/>
<polygon fill="none" stroke="black" points="205.26,-356.87 214.84,-361.38 210.16,-351.88 205.26,-356.87"/>
</g>
<!-- aesa.attaque.AttaqueJambe -->
<g id="node4" class="node">
<title>aesa.attaque.AttaqueJambe</title>
<polygon fill="none" stroke="black" points="180,-120.5 180,-189.5 278,-189.5 278,-120.5 180,-120.5"/>
<text text-anchor="start" x="189.5" y="-174.3" font-family="Times New Roman,serif" font-size="14.00">AttaqueJambe</text>
<polyline fill="none" stroke="black" points="180,-166.5 278,-166.5 "/>
<text text-anchor="start" x="188" y="-151.3" font-family="Times New Roman,serif" font-size="14.00">zone : JAMBE</text>
<polyline fill="none" stroke="black" points="180,-143.5 278,-143.5 "/>
<text text-anchor="start" x="227" y="-128.3" font-family="Times New Roman,serif" font-size="14.00"> </text>
</g>
<!-- aesa.attaque.AttaqueJambe&#45;&gt;aesa.attaque.Attaque -->
<g id="edge2" class="edge">
<title>aesa.attaque.AttaqueJambe&#45;&gt;aesa.attaque.Attaque</title>
<path fill="none" stroke="black" d="M236.21,-189.65C244.9,-230.26 259.73,-299.49 270.76,-351.01"/>
<polygon fill="none" stroke="black" points="267.4,-352.02 272.91,-361.06 274.24,-350.55 267.4,-352.02"/>
</g>
<!-- aesa.attaque.AttaqueTete -->
<g id="node5" class="node">
<title>aesa.attaque.AttaqueTete</title>
<polygon fill="none" stroke="black" points="296,-120.5 296,-189.5 384,-189.5 384,-120.5 296,-120.5"/>
<text text-anchor="start" x="305.5" y="-174.3" font-family="Times New Roman,serif" font-size="14.00">AttaqueTete</text>
<polyline fill="none" stroke="black" points="296,-166.5 384,-166.5 "/>
<text text-anchor="start" x="304" y="-151.3" font-family="Times New Roman,serif" font-size="14.00">zone : TETE</text>
<polyline fill="none" stroke="black" points="296,-143.5 384,-143.5 "/>
<text text-anchor="start" x="338" y="-128.3" font-family="Times New Roman,serif" font-size="14.00"> </text>
</g>
<!-- aesa.attaque.AttaqueTete&#45;&gt;aesa.attaque.Attaque -->
<g id="edge3" class="edge">
<title>aesa.attaque.AttaqueTete&#45;&gt;aesa.attaque.Attaque</title>
<path fill="none" stroke="black" d="M332.92,-189.65C324.38,-230.26 309.82,-299.49 298.98,-351.01"/>
<polygon fill="none" stroke="black" points="295.5,-350.56 296.87,-361.06 302.35,-352 295.5,-350.56"/>
</g>
<!-- aesa.combattant.Combattant -->
<g id="node6" class="node">
<title>aesa.combattant.Combattant</title>
<polygon fill="none" stroke="black" points="509.5,-0.5 509.5,-309.5 664.5,-309.5 664.5,-0.5 509.5,-0.5"/>
<text text-anchor="start" x="554" y="-294.3" font-family="Times New Roman,serif" font-size="14.00">Combattant</text>
<polyline fill="none" stroke="black" points="509.5,-286.5 664.5,-286.5 "/>
<text text-anchor="start" x="517.5" y="-271.3" font-family="Times New Roman,serif" font-size="14.00">a_joue : bool</text>
<text text-anchor="start" x="517.5" y="-256.3" font-family="Times New Roman,serif" font-size="14.00">agilite_base : int</text>
<text text-anchor="start" x="517.5" y="-241.3" font-family="Times New Roman,serif" font-size="14.00">agilite_reelle</text>
<text text-anchor="start" x="517.5" y="-226.3" font-family="Times New Roman,serif" font-size="14.00">buff : int</text>
<text text-anchor="start" x="517.5" y="-211.3" font-family="Times New Roman,serif" font-size="14.00">encombrement_reel</text>
<text text-anchor="start" x="517.5" y="-196.3" font-family="Times New Roman,serif" font-size="14.00">encombrement_total : int</text>
<text text-anchor="start" x="517.5" y="-181.3" font-family="Times New Roman,serif" font-size="14.00">etats : set</text>
<text text-anchor="start" x="517.5" y="-166.3" font-family="Times New Roman,serif" font-size="14.00">force : int</text>
<text text-anchor="start" x="517.5" y="-151.3" font-family="Times New Roman,serif" font-size="14.00">initiative</text>
<text text-anchor="start" x="517.5" y="-136.3" font-family="Times New Roman,serif" font-size="14.00">nom : str</text>
<text text-anchor="start" x="517.5" y="-121.3" font-family="Times New Roman,serif" font-size="14.00">points_action</text>
<text text-anchor="start" x="517.5" y="-106.3" font-family="Times New Roman,serif" font-size="14.00">precision : int</text>
<text text-anchor="start" x="517.5" y="-91.3" font-family="Times New Roman,serif" font-size="14.00">qj : int</text>
<text text-anchor="start" x="517.5" y="-76.3" font-family="Times New Roman,serif" font-size="14.00">rvj</text>
<text text-anchor="start" x="517.5" y="-61.3" font-family="Times New Roman,serif" font-size="14.00">sante : float</text>
<text text-anchor="start" x="517.5" y="-46.3" font-family="Times New Roman,serif" font-size="14.00">vitesse_base : int</text>
<text text-anchor="start" x="517.5" y="-31.3" font-family="Times New Roman,serif" font-size="14.00">vitesse_reelle</text>
<polyline fill="none" stroke="black" points="509.5,-23.5 664.5,-23.5 "/>
<text text-anchor="start" x="585" y="-8.3" font-family="Times New Roman,serif" font-size="14.00"> </text>
</g>
<!-- aesa.coup.Coup -->
<g id="node7" class="node">
<title>aesa.coup.Coup</title>
<polygon fill="none" stroke="black" points="682.5,-90.5 682.5,-219.5 841.5,-219.5 841.5,-90.5 682.5,-90.5"/>
<text text-anchor="start" x="746" y="-204.3" font-family="Times New Roman,serif" font-size="14.00">Coup</text>
<polyline fill="none" stroke="black" points="682.5,-196.5 841.5,-196.5 "/>
<text text-anchor="start" x="735.5" y="-181.3" font-family="Times New Roman,serif" font-size="14.00">angle : int</text>
<text text-anchor="start" x="735.5" y="-166.3" font-family="Times New Roman,serif" font-size="14.00">attaquant</text>
<text text-anchor="start" x="735.5" y="-151.3" font-family="Times New Roman,serif" font-size="14.00">attaque</text>
<text text-anchor="start" x="735.5" y="-136.3" font-family="Times New Roman,serif" font-size="14.00">cible</text>
<text text-anchor="start" x="735.5" y="-121.3" font-family="Times New Roman,serif" font-size="14.00">j20 : int</text>
<polyline fill="none" stroke="black" points="682.5,-113.5 841.5,-113.5 "/>
<text text-anchor="start" x="690.5" y="-98.3" font-family="Times New Roman,serif" font-size="14.00">execute(j20, angle: Angle)</text>
</g>
<!-- aesa.etat.Etat -->
<g id="node8" class="node">
<title>aesa.etat.Etat</title>
<polygon fill="none" stroke="black" points="803,-363 803,-474 983,-474 983,-363 803,-363"/>
<text text-anchor="start" x="882" y="-458.8" font-family="Times New Roman,serif" font-size="14.00">Etat</text>
<polyline fill="none" stroke="black" points="803,-451 983,-451 "/>
<text text-anchor="start" x="845.5" y="-435.8" font-family="Times New Roman,serif" font-size="14.00">ampleur : int</text>
<text text-anchor="start" x="845.5" y="-420.8" font-family="Times New Roman,serif" font-size="14.00">nom : NoneType</text>
<polyline fill="none" stroke="black" points="803,-413 983,-413 "/>
<text text-anchor="start" x="811" y="-398.8" font-family="Times New Roman,serif" font-size="14.00">create(nom, value)</text>
<text text-anchor="start" x="811" y="-384.8" font-family="Times New Roman,serif" font-style="italic" font-size="14.00">effet_attaquant</text>
<text text-anchor="start" x="899" y="-384.8" font-family="Times New Roman,serif" font-size="14.00">(coup: Coup)</text>
<text text-anchor="start" x="811" y="-370.8" font-family="Times New Roman,serif" font-style="italic" font-size="14.00">effet_cible</text>
<text text-anchor="start" x="869" y="-370.8" font-family="Times New Roman,serif" font-size="14.00">(coup: Coup)</text>
</g>
<!-- aesa.etat.EtatETO -->
<g id="node9" class="node">
<title>aesa.etat.EtatETO</title>
<polygon fill="none" stroke="black" points="859.5,-113 859.5,-197 926.5,-197 926.5,-113 859.5,-113"/>
<text text-anchor="start" x="868" y="-181.8" font-family="Times New Roman,serif" font-size="14.00">EtatETO</text>
<polyline fill="none" stroke="black" points="859.5,-174 926.5,-174 "/>
<text text-anchor="start" x="867.5" y="-158.8" font-family="Times New Roman,serif" font-size="14.00">label : str</text>
<text text-anchor="start" x="867.5" y="-143.8" font-family="Times New Roman,serif" font-size="14.00">nom : str</text>
<polyline fill="none" stroke="black" points="859.5,-136 926.5,-136 "/>
<text text-anchor="start" x="891" y="-120.8" font-family="Times New Roman,serif" font-size="14.00"> </text>
</g>
<!-- aesa.etat.EtatETO&#45;&gt;aesa.etat.Etat -->
<g id="edge4" class="edge">
<title>aesa.etat.EtatETO&#45;&gt;aesa.etat.Etat</title>
<path fill="none" stroke="black" d="M893,-197.15C893,-238.91 893,-304.17 893,-352.84"/>
<polygon fill="none" stroke="black" points="889.5,-352.97 893,-362.97 896.5,-352.97 889.5,-352.97"/>
</g>
<!-- aesa.test.test_coup1.MyTestCase -->
<g id="node10" class="node">
<title>aesa.test.test_coup1.MyTestCase</title>
<polygon fill="none" stroke="black" points="945,-113.1 945,-196.9 1041,-196.9 1041,-113.1 945,-113.1"/>
<text text-anchor="start" x="957" y="-181.7" font-family="Times New Roman,serif" font-size="14.00">MyTestCase</text>
<polyline fill="none" stroke="black" points="945,-173.9 1041,-173.9 "/>
<polyline fill="none" stroke="black" points="945,-149.1 1041,-149.1 "/>
<text text-anchor="start" x="953" y="-134.9" font-family="Times New Roman,serif" font-style="italic" font-size="14.00">setUp</text>
<text text-anchor="start" x="987" y="-134.9" font-family="Times New Roman,serif" font-size="14.00">(): None</text>
<text text-anchor="start" x="953" y="-120.9" font-family="Times New Roman,serif" font-size="14.00">test_coup()</text>
</g>
<!-- aesa.test.test_template.MyTestCase -->
<g id="node11" class="node">
<title>aesa.test.test_template.MyTestCase</title>
<polygon fill="none" stroke="black" points="1059,-119.6 1059,-190.4 1169,-190.4 1169,-119.6 1059,-119.6"/>
<text text-anchor="start" x="1078" y="-175.2" font-family="Times New Roman,serif" font-size="14.00">MyTestCase</text>
<polyline fill="none" stroke="black" points="1059,-167.4 1169,-167.4 "/>
<polyline fill="none" stroke="black" points="1059,-142.6 1169,-142.6 "/>
<text text-anchor="start" x="1067" y="-127.4" font-family="Times New Roman,serif" font-size="14.00">test_something()</text>
</g>
<!-- aesa.partie.Partie -->
<g id="node12" class="node">
<title>aesa.partie.Partie</title>
<polygon fill="none" stroke="black" points="1187.5,-113 1187.5,-197 1378.5,-197 1378.5,-113 1187.5,-113"/>
<text text-anchor="start" x="1267" y="-181.8" font-family="Times New Roman,serif" font-size="14.00">Partie</text>
<polyline fill="none" stroke="black" points="1187.5,-174 1378.5,-174 "/>
<text text-anchor="start" x="1195.5" y="-158.8" font-family="Times New Roman,serif" font-size="14.00">combattants : List[Combattant]</text>
<text text-anchor="start" x="1195.5" y="-143.8" font-family="Times New Roman,serif" font-size="14.00">nom : str</text>
<polyline fill="none" stroke="black" points="1187.5,-136 1378.5,-136 "/>
<text text-anchor="start" x="1281" y="-120.8" font-family="Times New Roman,serif" font-size="14.00"> </text>
</g>
<!-- aesa.test.test_prop.PropTestCase -->
<g id="node13" class="node">
<title>aesa.test.test_prop.PropTestCase</title>
<polygon fill="none" stroke="black" points="1396.5,-119.6 1396.5,-190.4 1545.5,-190.4 1545.5,-119.6 1396.5,-119.6"/>
<text text-anchor="start" x="1430.5" y="-175.2" font-family="Times New Roman,serif" font-size="14.00">PropTestCase</text>
<polyline fill="none" stroke="black" points="1396.5,-167.4 1545.5,-167.4 "/>
<polyline fill="none" stroke="black" points="1396.5,-142.6 1545.5,-142.6 "/>
<text text-anchor="start" x="1404.5" y="-127.4" font-family="Times New Roman,serif" font-size="14.00">test_attributs_calcules()</text>
</g>
<!-- aesa.attaque.ZoneAttaque -->
<g id="node14" class="node">
<title>aesa.attaque.ZoneAttaque</title>
<polygon fill="none" stroke="black" points="402.5,-120.5 402.5,-189.5 491.5,-189.5 491.5,-120.5 402.5,-120.5"/>
<text text-anchor="start" x="410.5" y="-174.3" font-family="Times New Roman,serif" font-size="14.00">ZoneAttaque</text>
<polyline fill="none" stroke="black" points="402.5,-166.5 491.5,-166.5 "/>
<text text-anchor="start" x="432" y="-151.3" font-family="Times New Roman,serif" font-size="14.00">name</text>
<polyline fill="none" stroke="black" points="402.5,-143.5 491.5,-143.5 "/>
<text text-anchor="start" x="445" y="-128.3" font-family="Times New Roman,serif" font-size="14.00"> </text>
</g>
<!-- aesa.attaque.ZoneAttaque&#45;&gt;aesa.attaque.Attaque -->
<g id="edge5" class="edge">
<title>aesa.attaque.ZoneAttaque&#45;&gt;aesa.attaque.Attaque</title>
<path fill="none" stroke="black" d="M439.81,-189.78C431.85,-222.35 416.87,-272.13 393,-310 383.6,-324.91 371.78,-339.34 359.43,-352.53"/>
<polygon fill="black" stroke="black" points="359.15,-352.82 357.87,-359.91 350.82,-361.46 352.11,-354.36 359.15,-352.82"/>
<text text-anchor="middle" x="392.5" y="-331.8" font-family="Times New Roman,serif" font-size="14.00" fill="green">zone</text>
</g>
</g>
</svg>
